<svg aria-hidden="true" style="position:absolute;width:0;height:0;overflow:hidden" xmlns="http://www.w3.org/2000/svg">
  <defs>
    <symbol id="logo" viewBox="0 0 107 32">
      <path fill="#ff6b0a" style="fill:var(--color1, #ff6b0a)" d="M106.667 0v32H59.536V0h47.131zM74.42 8.811v13.927l.001.044a.842.842 0 0 1-.001.087c-.007.08.015.128.107.115a.485.485 0 0 1 .066-.001l.033.001h3.582c.075.001.112.001.129-.017s.016-.051.014-.116l-.001-.078V8.83l-.001-.033a.485.485 0 0 1 .001-.066c.008-.082-.02-.125-.109-.115-.018.002-.036.001-.054.001l-.028-.001h-3.55l-.062-.001c-.065-.001-.098-.001-.114.015s-.016.049-.015.116l.001.064zm19.579-.194h-5.863c-1.954 0-3.908 0-5.86-.002h-.133c-.066-.003-.089.028-.084.089a.486.486 0 0 1 0 .054v3.398c0 .072-.001.107.017.124s.051.017.118.016H85.923c.12 0 .18 0 .209.03s.029.087.029.2v10.335c-.001.059-.001.09.014.106.017.018.052.017.127.017h3.571c.111 0 .166 0 .193-.028s.027-.08.027-.186V12.488l-.001-.059c-.001-.063-.001-.097.015-.114.018-.019.055-.018.133-.018h3.798c.162 0 .162 0 .164-.159V8.759c.001-.072.001-.108-.016-.126s-.053-.017-.123-.016L94 8.618z"/>
      <path fill="#010101" style="fill:var(--color2, #010101)" d="m47.132 0 12.403 16-12.403 16H0V0h47.132zm-26.38 13.662.215.174a.371.371 0 0 0 .106-.107.256.256 0 0 1 .02-.026c.254-.302.507-.606.76-.91.507-.606 1.012-1.212 1.518-1.82.101-.122.097-.177-.018-.276a12.617 12.617 0 0 0-.277-.233c-.803-.657-1.685-1.17-2.684-1.467a9.43 9.43 0 0 0-2.043-.353c-.905-.061-1.802-.031-2.691.174-3.112.716-5.434 3.292-5.707 6.594a7.795 7.795 0 0 0 .225 2.638c.519 1.96 1.645 3.461 3.434 4.45.975.539 2.03.823 3.14.912.94.076 1.87.018 2.788-.189 1.553-.35 2.925-1.056 4.146-2.067a.333.333 0 0 0 .137-.289c-.004-1.572-.004-3.145-.003-4.717v-1.179a.66.66 0 0 0-.003-.062c-.003-.046-.006-.092.006-.134.015-.049-.012-.077-.037-.104-.021-.022-.042-.044-.039-.077.007-.054-.03-.062-.073-.062h-6.556l-.038.001c-.026.001-.052.002-.077-.001-.066-.007-.087.026-.083.087a.657.657 0 0 1 .001.077l-.001.038V17.839l-.001.074c-.001.063-.002.096.014.112s.052.017.125.016H19.772c.072-.001.107-.001.124.016.016.016.015.048.014.11l-.001.078v.679c0 .308 0 .311-.279.445-.818.391-1.681.503-2.573.391-.991-.123-1.784-.591-2.365-1.401-.378-.527-.585-1.122-.662-1.763-.097-.818.002-1.605.373-2.348.448-.892 1.125-1.533 2.098-1.827.682-.207 1.373-.153 2.056-.003.619.135 1.159.437 1.657.816.182.138.359.281.539.427zm18.346-2.98c-1.528-1.39-3.348-2.052-5.229-2.066-.869.002-1.518.072-2.207.251-1.998.521-3.563 1.638-4.602 3.422-1.067 1.83-1.283 3.793-.687 5.812.667 2.257 2.089 3.9 4.29 4.815 1.69.701 3.44.795 5.206.332 2.051-.537 3.624-1.725 4.654-3.578.869-1.562 1.102-3.238.778-4.987-.291-1.572-1.017-2.919-2.203-4zm-8.437 3.528c.666-1.227 1.729-1.815 2.762-1.838 2.094-.005 3.464 1.173 3.837 2.806.226.984.125 1.94-.358 2.834-.57 1.05-1.458 1.661-2.654 1.797-1.156.133-2.165-.194-2.99-1.025a3.579 3.579 0 0 1-.983-1.914c-.172-.928-.066-1.827.386-2.66z"/>
    </symbol>
    <symbol id="javascript" viewBox="0 0 32 32">
      <path fill="#f7df1e" style="fill:var(--color3, #f7df1e)" d="M0 0h32v32H0V0z"/>
      <path style="fill:var(--color4, #000)" d="m8.414 26.741 2.449-1.482c.473.838.902 1.546 1.933 1.546.988 0 1.611-.387 1.611-1.89V14.69h3.007v10.267c0 3.115-1.826 4.532-4.489 4.532-2.406 0-3.802-1.246-4.511-2.75zm10.634-.322 2.448-1.418c.645 1.053 1.482 1.826 2.964 1.826 1.246 0 2.041-.623 2.041-1.482 0-1.031-.816-1.396-2.191-1.997l-.752-.323c-2.17-.923-3.609-2.083-3.609-4.532 0-2.256 1.718-3.974 4.404-3.974 1.912 0 3.287.666 4.274 2.406l-2.341 1.504c-.516-.924-1.074-1.289-1.933-1.289-.881 0-1.439.558-1.439 1.289 0 .902.558 1.268 1.847 1.826l.752.322c2.556 1.096 3.995 2.212 3.995 4.726 0 2.707-2.127 4.189-4.983 4.189-2.792 0-4.597-1.332-5.477-3.072z"/>
    </symbol>
    <symbol id="icon-facebook" viewBox="0 0 44 44">
      <rect x="0.5" y="0.5" width="43" height="43" rx="9.5" fill="none" stroke="currentColor" stroke-opacity="0.1"/>
      <g opacity="0.8">
        <path d="M25.0799 12.0601C25.2899 12.0601 25.4999 12.0601 25.9199 12.0601V15.2101C25.7099 15.2101 25.2899 15.2101 24.8699 15.2101C24.4499 15.2101 24.0299 15.2101 23.8199 15.4201C23.6099 15.6301 23.6099 15.8401 23.6099 16.3301C23.6099 16.7501 23.6099 17.0301 23.6099 17.4501H25.9199V20.1101H23.6099V31.6601H20.0399V20.0401H18.1499V17.3801H20.0399V16.4701C20.0399 14.9301 20.2499 13.8101 20.6699 13.3201C21.2999 12.4101 22.5599 11.9901 24.4499 11.9901C24.6599 12.0601 24.8699 12.0601 25.0799 12.0601Z" fill="currentColor"/>
      </g>
    </symbol>
    <symbol id="icon-instagram" viewBox="56 0 44 44">
      <rect x="56.5" y="0.5" width="43" height="43" rx="9.5" fill="none" stroke="currentColor" stroke-opacity="0.1"/>
      <g opacity="0.8">
        <path d="M89.1279 17.4115C89.1142 16.4715 88.9401 15.5388 88.6067 14.6596C88.0233 13.1583 86.8354 11.9711 85.3315 11.3899C84.4621 11.0633 83.5428 10.8882 82.6124 10.8683C81.4158 10.815 81.0364 10.8 77.9988 10.8C74.9612 10.8 74.5719 10.8 73.384 10.8683C72.4548 10.8882 71.5355 11.0633 70.6661 11.3899C69.1622 11.9711 67.973 13.1583 67.3909 14.6596C67.0638 15.5277 66.8871 16.4454 66.8697 17.373C66.8162 18.5689 66.8 18.9477 66.8 21.9802C66.8 25.0127 66.8 25.4002 66.8697 26.5873C66.8884 27.5162 67.0638 28.4327 67.3909 29.3032C67.9743 30.8033 69.1622 31.9905 70.6673 32.5717C71.5331 32.9095 72.4523 33.1007 73.3852 33.1305C74.5831 33.1839 74.9625 33.2001 78.0001 33.2001C81.0376 33.2001 81.427 33.2001 82.6149 33.1305C83.5441 33.1119 84.4633 32.9368 85.334 32.6102C86.8379 32.0278 88.0258 30.8406 88.6092 29.3405C88.9363 28.4712 89.1117 27.5547 89.1304 26.6246C89.1839 25.43 89.2001 25.0512 89.2001 22.0174C89.1976 18.9849 89.1976 18.5999 89.1279 17.4115ZM77.9913 27.7149C74.8144 27.7149 72.2408 25.1456 72.2408 21.974C72.2408 18.8024 74.8144 16.233 77.9913 16.233C81.1658 16.233 83.7419 18.8024 83.7419 21.974C83.7419 25.1456 81.1658 27.7149 77.9913 27.7149ZM83.9707 17.3594C83.2281 17.3594 82.6298 16.7608 82.6298 16.0207C82.6298 15.2805 83.2281 14.682 83.9707 14.682C84.7108 14.682 85.3104 15.2805 85.3104 16.0207C85.3104 16.7608 84.7108 17.3594 83.9707 17.3594Z" fill="currentColor"/>
        <path d="M77.993 25.4789C79.9279 25.4789 81.4965 23.9104 81.4965 21.9754C81.4965 20.0405 79.9279 18.4719 77.993 18.4719C76.0581 18.4719 74.4895 20.0405 74.4895 21.9754C74.4895 23.9104 76.0581 25.4789 77.993 25.4789Z" fill="currentColor"/>
      </g>
    </symbol>
    <symbol id="icon-youtube" viewBox="112 0 44 44">
      <rect x="112.5" y="0.5" width="43" height="43" rx="9.5" fill="none" stroke="currentColor" stroke-opacity="0.1"/>
      <g opacity="0.8">
        <path fill-rule="evenodd" clip-rule="evenodd" d="M141.21 13.2499C140.02 13.1799 137.57 13.1099 133.86 13.1099H133.37C129.8 13.1099 127.42 13.1799 126.23 13.3199C124.62 13.4599 123.5 13.8799 122.87 14.4399C122.31 14.9299 121.89 15.8399 121.75 17.0299C121.68 17.7999 121.61 19.4099 121.61 21.8599V22.2099C121.61 24.5199 121.68 26.1299 121.82 26.8999C122.03 28.0199 122.38 28.8599 123.08 29.3499C123.78 29.9099 124.97 30.2599 126.65 30.3999C127.84 30.4699 130.29 30.5399 134 30.5399H134.49C138.06 30.5399 140.44 30.4699 141.63 30.3299C143.24 30.1899 144.36 29.7699 144.99 29.2099C145.55 28.7199 145.97 27.8099 146.11 26.6199C146.18 25.8499 146.25 24.2399 146.25 21.7899V21.4399C146.25 19.1299 146.18 17.5199 146.04 16.7499C145.83 15.6299 145.48 14.7899 144.78 14.2999C144.08 13.7399 142.89 13.3899 141.21 13.2499ZM138.48 21.8599L130.78 26.4799V17.2399L138.48 21.8599Z" fill="currentColor"/>
      </g>
    </symbol>
    <symbol id="icon-burger" viewBox="0 0 24 24">
      <path d="M4 7h16v2H4zM4 11h16v2H4zM4 15h16v2H4z"/>
    </symbol>
    <symbol id="icon-close" viewBox="0 0 24 24">
      <path d="M6 6l12 12M18 6L6 18" fill="none" stroke="currentColor" stroke-width="2" stroke-linecap="round"/>
    </symbol>
    <symbol id="icon-heart" viewBox="0 0 20 20">
      <path d="M17.3671 3.84172C16.9415 3.41589 16.4361 3.0781 15.8799 2.84763C15.3237 2.61716 14.7275 2.49854 14.1254 2.49854C13.5234 2.49854 12.9272 2.61716 12.371 2.84763C11.8147 3.0781 11.3094 3.41589 10.8838 3.84172L10.0004 4.72506L9.11709 3.84172C8.25735 2.98198 7.09128 2.49898 5.87542 2.49898C4.65956 2.49898 3.4935 2.98198 2.63376 3.84172C1.77401 4.70147 1.29102 5.86753 1.29102 7.08339C1.29102 8.29925 1.77401 9.46531 2.63376 10.3251L3.51709 11.2084L10.0004 17.6917L16.4838 11.2084L17.3671 10.3251C17.7929 9.89943 18.1307 9.39407 18.3612 8.83785C18.5917 8.28164 18.7103 7.68546 18.7103 7.08339C18.7103 6.48132 18.5917 5.88514 18.3612 5.32893C18.1307 4.77271 17.7929 4.26735 17.3671 3.84172Z" fill="none" stroke="currentColor" stroke-width="1.5" stroke-linecap="round" stroke-linejoin="round"/>
    </symbol>
    <symbol id="icon-trash" viewBox="0 0 20 20">
      <path d="M13.3333 4.99996V4.33329C13.3333 3.39987 13.3333 2.93316 13.1517 2.57664C12.9919 2.26304 12.7369 2.00807 12.4233 1.84828C12.0668 1.66663 11.6001 1.66663 10.6667 1.66663H9.33333C8.39991 1.66663 7.9332 1.66663 7.57668 1.84828C7.26308 2.00807 7.00811 2.26304 6.84832 2.57664C6.66667 2.93316 6.66667 3.39987 6.66667 4.33329V4.99996M8.33333 9.58329V13.75M11.6667 9.58329V13.75M2.5 4.99996H17.5M15.8333 4.99996V14.3333C15.8333 15.7334 15.8333 16.4335 15.5608 16.9683C15.3212 17.4387 14.9387 17.8211 14.4683 18.0608C13.9335 18.3333 13.2335 18.3333 11.8333 18.3333H8.16667C6.76654 18.3333 6.06647 18.3333 5.53169 18.0608C5.06129 17.8211 4.67883 17.4387 4.43915 16.9683C4.16667 16.4335 4.16667 15.7334 4.16667 14.3333V4.99996" fill="none" stroke="currentColor" stroke-width="1.5" stroke-linecap="round" stroke-linejoin="round"/>
    </symbol>
    <symbol id="icon-quote" viewBox="0 0 24 24">
      <path d="M6 6h6v6H9l-3 4V6zm8 0h6v6h-3l-3 4V6z"/>
    </symbol>
    <symbol id="icon-star" viewBox="0 0 24 24">
      <path d="M12 2l2.9 6 6.6.6-5 4.3 1.5 6.5L12 16l-6 3.4 1.5-6.5-5-4.3 6.6-.6z"/>
    </symbol>
    <symbol id="icon-run" viewBox="0 0 24 24">
      <circle cx="16.5" cy="5" r="2.5" fill="currentColor"/>
      <path d="M8 12l3-3 3 2 2 3-3 1-2 4H8l2-4-2-3z" fill="none" stroke="currentColor" stroke-width="1.6" stroke-linecap="round" stroke-linejoin="round"/>
    </symbol>
  </defs>
</svg>
