<svg xmlns="http://www.w3.org/2000/svg" width="19" height="16" fill="none"><path fill="#f4f4f4" d="M3.75 8.302q1.74-.69 2.79.36t.623 3.347q-.328 1.707-1.444 2.625-1.083.886-2.526.886-1.969 0-2.724-1.51-.754-1.54-.295-4.133.263-1.412.853-2.855.591-1.444 1.575-2.953.985-1.51 2.56-2.625A8.4 8.4 0 0 1 8.638 0L8.31 3.478q-1.608.328-2.854 1.674Q4.21 6.465 3.75 8.302m9.877 0q1.74-.69 2.789.36t.623 3.347q-.328 1.707-1.443 2.625-1.083.886-2.527.886-1.968 0-2.723-1.51-.755-1.54-.296-4.133.263-1.412.853-2.855.591-1.444 1.576-2.953.984-1.51 2.559-2.625A8.4 8.4 0 0 1 18.516 0l-.328 3.478q-1.607.328-2.855 1.674-1.247 1.313-1.706 3.15"/></svg>