<svg xmlns="http://www.w3.org/2000/svg" width="60" height="60" fill="none"><path fill="#242424" fill-rule="evenodd" d="m26.727 25.323.681.698-8.373-23.995 9.594 22.476.383.898.033-.975L29.872 0l.827 24.424.033.976.383-.898 9.594-22.476-8.052 23.073-.321.922.681-.698L50.083 7.83 34.24 26.436l-.633.744 23.12-10.552-21.495 11.627-.859.464.974-.057 24.397-1.43-25.212 3.2 24.195 7.778-23.718-5.889-.948-.235.759.614 18.993 15.379-19.99-14.059-.798-.561.485.846 12.155 21.202-13.56-20.331-.542-.812 3.822 25.125-5.513-24.809-5.512 24.81 3.675-24.161.146-.965-.54.812-13.562 20.33 12.155-21.2.485-.847-.798.56-19.99 14.06L24.925 32.7l.759-.614-.947.235-23.72 5.889 23.266-7.48.929-.298L0 27.232l25.37 1.487-.857-.464L3.017 16.628l23.12 10.552L9.661 7.83zm1.744 1.06-1.212.75-.859 1.138-.39 1.371.132 1.42.635 1.275 1.053.96 1.33.515h1.425l1.329-.514 1.053-.96.635-1.277.132-1.419-.39-1.37-.86-1.138-1.21-.75-1.402-.262z" clip-rule="evenodd"/></svg>